{"glyphs":{"0":{"ha":932,"x_min":38,"x_max":894,"o":"m 468 -15 q 247 49 344 -15 q 94 229 150 114 q 38 494 38 344 q 93 758 38 643 q 245 937 149 872 q 465 1001 342 1001 q 686 937 589 1001 q 839 758 783 872 q 894 493 894 643 q 839 227 894 342 q 687 49 783 113 q 468 -15 590 -15 m 465 199 q 598 274 550 199 q 646 493 646 350 q 598 710 646 635 q 465 786 550 786 q 333 711 381 786 q 286 494 286 636 q 334 274 286 350 q 465 199 382 199 z "},"1":{"ha":542,"x_min":22,"x_max":456,"o":"m 210 0 l 210 778 l 22 778 l 22 985 l 456 985 l 456 0 l 210 0 z "},"2":{"ha":800,"x_min":25,"x_max":760,"o":"m 31 0 l 31 135 l 417 528 q 478 606 460 572 q 496 674 496 639 q 463 757 496 726 q 372 788 429 788 q 276 757 319 788 q 188 658 233 726 l 25 803 q 392 1001 147 1001 q 576 963 497 1001 q 697 852 654 924 q 739 683 739 781 q 703 526 739 596 q 586 378 668 457 l 411 207 l 760 207 l 760 0 l 31 0 z "},"3":{"ha":790,"x_min":15,"x_max":751,"o":"m 356 -15 q 164 19 251 -15 q 15 121 76 54 l 174 276 q 248 217 199 240 q 351 194 297 194 q 465 230 421 194 q 508 328 508 265 q 463 424 508 389 q 338 460 417 460 q 280 456 310 460 q 232 446 250 453 l 232 582 l 400 778 l 83 778 l 83 985 l 731 985 l 731 850 l 517 607 q 637 563 583 600 q 721 465 690 526 q 751 321 751 403 q 702 144 751 219 q 564 26 653 68 q 356 -15 475 -15 z "},"4":{"ha":851,"x_min":25,"x_max":825,"o":"m 25 201 l 25 338 l 333 985 l 600 985 l 318 408 l 488 408 l 488 593 l 731 593 l 731 408 l 825 408 l 825 201 l 731 201 l 731 0 l 488 0 l 488 201 l 25 201 z "},"5":{"ha":789,"x_min":11,"x_max":751,"o":"m 357 -15 q 163 19 256 -15 q 11 121 71 54 l 169 276 q 244 217 194 240 q 347 194 293 194 q 463 233 419 194 q 507 335 507 271 q 462 438 507 399 q 339 478 417 478 q 251 465 292 478 q 181 428 211 451 l 83 517 l 132 985 l 697 985 l 697 778 l 331 778 l 315 642 q 410 653 356 653 q 597 608 521 653 q 713 488 674 563 q 751 325 751 414 q 703 148 751 225 q 566 28 654 71 q 357 -15 478 -15 z "},"6":{"ha":804,"x_min":29,"x_max":775,"o":"m 401 -15 q 211 30 296 -15 q 78 153 126 75 q 29 329 29 231 q 113 572 29 450 l 394 985 l 672 985 l 438 660 l 440 660 q 609 616 533 660 q 730 498 685 572 q 775 331 775 424 q 726 153 775 232 q 592 30 676 75 q 401 -15 507 -15 m 401 194 q 499 235 461 194 q 538 336 538 275 q 499 438 538 397 q 401 478 460 478 q 305 438 343 478 q 267 336 267 397 q 305 235 267 275 q 401 194 343 194 z "},"7":{"ha":736,"x_min":22,"x_max":713,"o":"m 150 0 l 444 778 l 22 778 l 22 985 l 713 985 l 713 849 l 404 0 l 150 0 z "},"8":{"ha":790,"x_min":35,"x_max":756,"o":"m 396 -15 q 205 22 286 -15 q 79 125 124 60 q 35 275 35 190 q 75 426 35 363 q 183 524 115 490 q 101 610 131 554 q 72 731 72 667 q 113 869 72 808 q 227 966 154 931 q 396 1001 300 1001 q 563 966 490 1001 q 677 869 636 931 q 718 731 718 808 q 689 610 718 667 q 606 524 660 554 q 715 426 675 490 q 756 275 756 361 q 711 125 756 190 q 585 22 667 60 q 396 -15 504 -15 m 396 607 q 465 633 438 607 q 492 701 492 660 q 465 772 492 744 q 396 800 438 800 q 326 773 353 800 q 299 704 299 746 q 326 634 299 661 q 396 607 353 607 m 396 192 q 485 226 450 192 q 521 311 521 260 q 485 397 521 363 q 396 431 450 431 q 305 397 340 431 q 269 311 269 363 q 305 226 269 260 q 396 192 340 192 z "},"9":{"ha":804,"x_min":28,"x_max":775,"o":"m 132 0 l 367 325 l 364 325 q 194 369 271 325 q 73 487 118 413 q 28 656 28 561 q 77 831 28 753 q 211 956 126 910 q 401 1001 296 1001 q 592 956 508 1001 q 726 832 676 910 q 775 657 775 754 q 692 413 775 535 l 410 0 l 132 0 m 401 508 q 499 548 461 508 q 538 649 538 588 q 499 750 538 710 q 401 790 461 790 q 305 750 343 790 q 267 649 267 710 q 305 548 267 588 q 401 508 343 508 z "},"A":{"ha":1031,"x_min":15,"x_max":1015,"o":"m 15 0 l 397 985 l 638 985 l 1015 0 l 756 0 l 697 172 l 331 172 l 269 0 l 15 0 m 399 369 l 629 369 l 515 699 l 399 369 z "},"B":{"ha":903,"x_min":88,"x_max":863,"o":"m 88 0 l 88 985 l 535 985 q 694 951 626 985 q 797 858 761 917 q 833 725 833 799 q 714 525 832 590 q 863 288 863 451 q 821 140 863 204 q 703 38 779 75 q 525 0 628 0 l 88 0 m 475 800 l 332 800 l 332 600 l 475 600 q 555 624 524 600 q 586 700 586 649 q 555 775 586 750 q 475 800 524 800 m 490 421 l 332 421 l 332 185 l 490 185 q 583 217 549 185 q 617 303 617 250 q 583 388 617 356 q 490 421 549 421 z "},"C":{"ha":961,"x_min":39,"x_max":942,"o":"m 565 -15 q 357 23 453 -15 q 190 130 261 61 q 78 292 118 199 q 39 493 39 385 q 78 695 39 603 q 189 856 118 788 q 356 963 260 925 q 563 1001 451 1001 q 772 964 679 1001 q 936 863 865 926 l 769 696 q 682 757 733 735 q 563 779 631 779 q 422 744 483 779 q 326 644 361 708 q 292 493 292 581 q 326 341 292 406 q 422 241 361 276 q 563 206 483 206 q 684 227 632 206 q 775 289 736 249 l 942 122 q 778 21 869 57 q 565 -15 688 -15 z "},"D":{"ha":1057,"x_min":88,"x_max":1019,"o":"m 88 0 l 88 985 l 493 985 q 763 923 644 985 q 951 750 882 861 q 1019 493 1019 639 q 980 292 1019 382 q 869 136 940 201 q 703 35 799 71 q 496 0 608 0 l 88 0 m 492 771 l 336 771 l 336 214 l 492 214 q 691 286 617 214 q 765 494 765 358 q 690 699 765 628 q 492 771 615 771 z "},"E":{"ha":871,"x_min":88,"x_max":818,"o":"m 88 0 l 88 985 l 810 985 l 810 775 l 336 775 l 336 604 l 768 604 l 768 400 l 336 400 l 336 210 l 818 210 l 818 0 l 88 0 z "},"F":{"ha":836,"x_min":88,"x_max":794,"o":"m 88 0 l 88 985 l 794 985 l 794 775 l 336 775 l 336 578 l 772 578 l 772 368 l 336 368 l 336 0 l 88 0 z "},"G":{"ha":1099,"x_min":39,"x_max":1068,"o":"m 564 -15 q 356 23 451 -15 q 190 131 261 61 q 78 292 118 200 q 39 493 39 385 q 80 694 39 601 q 194 856 121 786 q 366 963 268 925 q 575 1001 464 1001 q 814 954 707 1001 q 988 826 921 907 l 821 660 q 711 749 771 719 q 572 779 651 779 q 428 744 492 779 q 328 644 365 708 q 290 494 290 579 q 325 343 290 408 q 422 242 360 278 q 565 206 485 206 q 717 246 657 206 q 803 360 778 286 l 538 367 l 538 569 l 1068 569 l 1068 532 q 1004 233 1068 356 q 827 48 940 111 q 564 -15 714 -15 z "},"H":{"ha":1026,"x_min":88,"x_max":939,"o":"m 88 0 l 88 985 l 336 985 l 336 608 l 690 608 l 690 985 l 939 985 l 939 0 l 690 0 l 690 400 l 336 400 l 336 0 l 88 0 z "},"I":{"ha":424,"x_min":88,"x_max":336,"o":"m 88 0 l 88 985 l 336 985 l 336 0 l 88 0 z "},"J":{"ha":764,"x_min":14,"x_max":692,"o":"m 304 -15 q 136 18 207 -15 q 14 115 65 51 l 175 275 q 311 206 226 206 q 405 241 367 206 q 443 349 443 276 l 443 985 l 692 985 l 692 360 q 645 159 692 243 q 511 30 599 75 q 304 -15 424 -15 z "},"K":{"ha":1001,"x_min":88,"x_max":988,"o":"m 88 0 l 88 985 l 336 985 l 336 544 l 669 985 l 972 985 l 599 515 l 988 0 l 685 0 l 336 481 l 336 0 l 88 0 z "},"L":{"ha":788,"x_min":88,"x_max":760,"o":"m 88 0 l 88 985 l 336 985 l 336 214 l 760 214 l 760 0 l 88 0 z "},"M":{"ha":1203,"x_min":88,"x_max":1115,"o":"m 88 0 l 88 985 l 267 985 l 601 478 l 936 985 l 1115 985 l 1115 0 l 869 0 l 869 503 l 682 222 l 521 222 l 335 504 l 335 0 l 88 0 z "},"N":{"ha":1039,"x_min":88,"x_max":951,"o":"m 88 0 l 88 985 l 261 985 l 703 425 l 703 985 l 951 985 l 951 0 l 767 0 l 336 546 l 336 0 l 88 0 z "},"O":{"ha":1128,"x_min":38,"x_max":1090,"o":"m 567 -18 q 357 21 453 -18 q 190 129 261 60 q 78 292 118 199 q 38 494 38 385 q 77 695 38 603 q 188 857 117 788 q 354 965 258 926 q 564 1003 450 1003 q 772 965 676 1003 q 940 857 868 926 q 1051 694 1011 788 q 1090 493 1090 601 q 1051 290 1090 383 q 940 128 1011 197 q 774 21 869 60 q 567 -18 678 -18 m 564 204 q 762 283 688 204 q 836 494 836 363 q 802 645 836 581 q 707 746 768 710 q 564 782 646 782 q 366 703 440 782 q 292 494 292 624 q 366 283 292 363 q 564 204 440 204 z "},"P":{"ha":889,"x_min":88,"x_max":858,"o":"m 88 0 l 88 985 l 522 985 q 692 947 617 985 q 813 838 768 908 q 858 668 858 767 q 813 499 858 569 q 692 390 768 428 q 522 353 617 353 l 336 353 l 336 0 l 88 0 m 479 800 l 336 800 l 336 538 l 479 538 q 572 571 533 538 q 611 668 611 604 q 572 766 611 732 q 479 800 533 800 z "},"Q":{"ha":1138,"x_min":39,"x_max":1138,"o":"m 567 -18 q 358 21 454 -18 q 190 129 261 60 q 78 292 118 199 q 39 494 39 385 q 78 695 39 603 q 188 857 117 788 q 356 965 260 926 q 564 1003 451 1003 q 773 965 676 1003 q 940 857 869 926 q 1051 694 1011 788 q 1090 493 1090 601 q 1066 333 1090 408 q 997 194 1042 257 l 1138 54 l 1000 -85 l 854 61 q 720 3 793 24 q 567 -18 647 -18 m 564 204 q 686 229 632 204 l 531 385 l 669 522 l 817 375 q 836 494 836 429 q 802 645 836 581 q 707 746 768 710 q 564 782 646 782 q 366 703 440 782 q 292 494 292 624 q 366 283 292 363 q 564 204 440 204 z "},"R":{"ha":921,"x_min":88,"x_max":908,"o":"m 88 0 l 88 985 l 507 985 q 683 948 607 985 q 801 845 758 911 q 844 692 844 779 q 781 510 844 585 q 607 411 717 436 l 908 0 l 621 0 l 350 399 l 336 399 l 336 0 l 88 0 m 472 800 l 336 800 l 336 576 l 472 576 q 566 606 533 576 q 599 688 599 636 q 566 769 599 738 q 472 800 533 800 z "},"S":{"ha":828,"x_min":15,"x_max":789,"o":"m 396 -15 q 181 22 271 -15 q 15 140 90 60 l 172 299 q 282 216 224 244 q 414 188 340 188 q 510 209 476 188 q 544 268 544 231 q 511 333 544 308 q 425 377 478 358 q 314 417 372 396 q 203 473 256 439 q 117 562 150 507 q 83 701 83 617 q 128 862 83 794 q 254 965 174 929 q 442 1001 335 1001 q 639 965 549 1001 q 788 865 729 928 l 629 708 q 539 775 585 753 q 439 797 493 797 q 358 780 388 797 q 329 728 329 763 q 363 666 329 689 q 448 625 396 643 q 559 585 500 607 q 670 529 618 564 q 756 438 722 494 q 789 293 789 381 q 685 65 789 146 q 396 -15 582 -15 z "},"T":{"ha":901,"x_min":25,"x_max":876,"o":"m 326 0 l 326 771 l 25 771 l 25 985 l 876 985 l 876 771 l 575 771 l 575 0 l 326 0 z "},"U":{"ha":983,"x_min":72,"x_max":913,"o":"m 493 -15 q 273 37 368 -15 q 125 182 178 89 q 72 393 72 275 l 72 985 l 319 985 l 319 375 q 369 250 319 294 q 493 206 419 206 q 615 250 567 206 q 663 374 663 294 l 663 985 l 913 985 l 913 392 q 860 181 913 274 q 713 37 807 89 q 493 -15 618 -15 z "},"V":{"ha":1003,"x_min":15,"x_max":986,"o":"m 386 0 l 15 985 l 281 985 l 501 350 l 726 985 l 986 985 l 611 0 l 386 0 z "},"W":{"ha":1406,"x_min":18,"x_max":1389,"o":"m 331 0 l 18 985 l 264 985 l 435 407 l 604 985 l 803 985 l 972 406 l 1144 985 l 1389 985 l 1075 0 l 875 0 l 703 586 l 532 0 l 331 0 z "},"X":{"ha":1006,"x_min":15,"x_max":990,"o":"m 15 0 l 360 507 l 32 985 l 328 985 l 510 696 l 689 985 l 972 985 l 654 511 l 990 0 l 699 0 l 501 324 l 299 0 l 15 0 z "},"Y":{"ha":964,"x_min":13,"x_max":951,"o":"m 360 0 l 360 401 l 13 985 l 297 985 l 485 650 l 672 985 l 951 985 l 608 413 l 608 0 l 360 0 z "},"Z":{"ha":857,"x_min":39,"x_max":814,"o":"m 39 0 l 39 172 l 486 776 l 64 776 l 64 985 l 814 985 l 814 813 l 365 208 l 803 208 l 803 0 l 39 0 z "},"a":{"ha":838,"x_min":29,"x_max":767,"o":"m 354 -14 q 186 32 260 -14 q 71 158 113 78 q 29 339 29 238 q 71 522 29 442 q 186 647 113 601 q 354 693 260 693 q 451 677 406 693 q 529 632 496 661 l 529 679 l 767 679 l 767 0 l 529 0 l 529 46 q 451 2 496 18 q 354 -14 406 -14 m 406 201 q 502 240 465 201 q 539 340 539 278 q 502 439 539 400 q 407 478 465 478 q 311 439 349 478 q 274 340 274 400 q 311 240 274 279 q 406 201 349 201 z "},"b":{"ha":838,"x_min":71,"x_max":808,"o":"m 71 0 l 71 1013 l 313 1013 l 313 647 q 475 693 383 693 q 649 647 574 693 q 766 522 724 601 q 808 339 808 442 q 766 158 808 238 q 649 32 724 78 q 475 -14 574 -14 q 385 1 428 -14 q 307 39 342 15 l 307 0 l 71 0 m 432 201 q 526 240 489 201 q 564 340 564 279 q 526 439 564 400 q 431 478 489 478 q 335 439 372 478 q 299 340 299 400 q 335 240 299 278 q 432 201 372 201 z "},"c":{"ha":696,"x_min":25,"x_max":679,"o":"m 407 -15 q 212 31 299 -15 q 75 156 125 76 q 25 339 25 236 q 76 522 25 442 q 213 649 126 603 q 410 696 300 696 q 674 590 567 696 l 521 438 q 410 479 479 479 q 310 441 350 479 q 271 340 271 403 q 311 239 271 278 q 410 200 351 200 q 476 213 449 200 q 525 249 504 225 l 679 96 q 556 12 621 39 q 407 -15 490 -15 z "},"d":{"ha":824,"x_min":29,"x_max":753,"o":"m 331 -14 q 172 33 239 -14 q 67 160 104 81 q 29 339 29 240 q 67 519 29 439 q 172 646 104 599 q 331 693 240 693 q 440 674 394 693 q 517 619 486 654 l 517 1013 l 753 1013 l 753 0 l 517 0 l 517 60 q 440 6 486 25 q 331 -14 394 -14 m 400 208 q 492 247 458 208 q 525 349 525 286 q 492 449 525 410 q 400 488 458 488 q 309 448 343 488 q 275 347 275 408 q 309 247 275 286 q 400 208 343 208 z "},"e":{"ha":769,"x_min":25,"x_max":749,"o":"m 414 -15 q 212 30 300 -15 q 74 155 124 75 q 25 340 25 235 q 74 522 25 442 q 206 649 122 603 q 396 696 290 696 q 578 651 499 696 q 703 531 657 607 q 749 356 749 454 q 746 313 749 335 q 738 264 743 292 l 261 261 q 414 158 294 158 q 571 226 511 158 l 697 100 q 414 -15 594 -15 m 399 522 q 261 418 293 522 l 525 419 q 399 522 501 522 z "},"f":{"ha":628,"x_min":10,"x_max":693,"o":"m 154 0 l 154 478 l 10 478 l 10 679 l 154 679 l 154 722 q 192 876 154 807 q 299 988 229 946 q 468 1029 369 1029 q 597 1005 542 1029 q 693 940 653 981 l 542 789 q 478 814 518 814 q 418 792 440 814 q 396 732 396 769 l 396 679 l 588 679 l 588 478 l 396 478 l 396 0 l 154 0 z "},"g":{"ha":817,"x_min":25,"x_max":747,"o":"m 349 25 q 181 69 254 25 q 67 190 108 114 q 25 360 25 265 q 67 528 25 453 q 181 649 108 604 q 349 693 254 693 q 510 644 443 693 l 510 679 l 747 679 l 747 47 q 697 -141 747 -61 q 558 -265 646 -221 q 360 -308 471 -308 q 160 -270 246 -308 q 25 -162 74 -232 l 171 -18 q 247 -78 206 -57 q 349 -99 289 -99 q 463 -63 421 -99 q 506 39 506 -28 l 506 69 q 349 25 439 25 m 393 235 q 485 272 451 235 q 519 360 519 308 q 485 447 519 410 q 394 485 451 485 q 303 447 338 485 q 269 360 269 408 q 303 273 269 311 q 393 235 336 235 z "},"h":{"ha":810,"x_min":71,"x_max":753,"o":"m 71 0 l 71 1013 l 313 1013 l 313 639 q 485 693 382 693 q 626 660 567 693 q 719 570 686 628 q 753 439 753 513 l 753 0 l 511 0 l 511 383 q 483 458 511 431 q 413 485 454 485 q 341 458 369 485 q 313 383 313 431 l 313 0 l 71 0 z "},"i":{"ha":382,"x_min":64,"x_max":318,"o":"m 190 758 q 100 796 136 758 q 64 888 64 833 q 100 979 64 942 q 190 1017 136 1017 q 282 979 246 1017 q 318 888 318 942 q 282 796 318 833 q 190 758 246 758 m 69 0 l 69 679 l 313 679 l 313 0 l 69 0 z "},"j":{"ha":400,"x_min":-179,"x_max":338,"o":"m 210 758 q 119 796 156 758 q 83 888 83 833 q 119 979 83 942 q 210 1017 156 1017 q 301 979 265 1017 q 338 888 338 942 q 301 796 338 833 q 210 758 265 758 m 44 -308 q -85 -283 -31 -308 q -179 -214 -140 -258 l -31 -65 q 28 -93 -4 -93 q 72 -78 54 -93 q 89 -28 89 -62 l 89 679 l 331 679 l 331 -24 q 294 -173 331 -108 q 194 -273 258 -237 q 44 -308 129 -308 z "},"k":{"ha":782,"x_min":71,"x_max":785,"o":"m 71 0 l 71 1013 l 313 1013 l 313 385 l 506 679 l 771 679 l 540 361 l 785 0 l 507 0 l 313 322 l 313 0 l 71 0 z "},"l":{"ha":383,"x_min":71,"x_max":313,"o":"m 71 0 l 71 1013 l 313 1013 l 313 0 l 71 0 z "},"m":{"ha":1221,"x_min":71,"x_max":1165,"o":"m 71 0 l 71 679 l 313 679 l 313 636 q 490 693 385 693 q 678 610 606 693 q 890 693 758 693 q 1031 660 969 693 q 1129 563 1093 626 q 1165 413 1165 500 l 1165 0 l 924 0 l 924 393 q 897 460 924 436 q 832 485 871 485 q 765 460 790 485 q 739 393 739 436 l 739 0 l 497 0 l 497 393 q 471 460 497 436 q 406 485 444 485 q 338 460 364 485 q 313 393 313 436 l 313 0 l 71 0 z "},"n":{"ha":810,"x_min":71,"x_max":753,"o":"m 71 0 l 71 679 l 313 679 l 313 635 q 497 693 388 693 q 628 659 569 693 q 719 567 686 625 q 753 439 753 510 l 753 0 l 511 0 l 511 383 q 483 458 511 431 q 413 485 454 485 q 341 458 369 485 q 313 383 313 431 l 313 0 l 71 0 z "},"o":{"ha":808,"x_min":25,"x_max":783,"o":"m 406 -15 q 210 31 296 -15 q 75 158 125 78 q 25 342 25 239 q 74 522 25 442 q 209 649 124 603 q 404 696 294 696 q 599 649 513 696 q 734 523 685 603 q 783 342 783 443 q 734 158 783 239 q 599 31 685 78 q 406 -15 514 -15 m 404 200 q 501 239 464 200 q 538 340 538 278 q 501 441 538 403 q 404 479 464 479 q 308 440 344 479 q 271 339 271 401 q 308 238 271 276 q 404 200 344 200 z "},"p":{"ha":838,"x_min":71,"x_max":808,"o":"m 71 -287 l 71 679 l 313 679 l 313 643 q 388 680 346 667 q 475 693 429 693 q 649 647 574 693 q 766 522 724 601 q 808 339 808 442 q 766 158 808 238 q 649 32 724 78 q 475 -14 574 -14 q 307 35 379 -14 l 307 -287 l 71 -287 m 431 201 q 526 240 489 201 q 564 340 564 279 q 526 439 564 400 q 432 478 489 478 q 335 440 372 478 q 299 340 299 401 q 335 240 299 279 q 431 201 372 201 z "},"q":{"ha":838,"x_min":29,"x_max":767,"o":"m 354 -14 q 186 32 260 -14 q 71 158 113 78 q 29 339 29 238 q 71 522 29 442 q 186 647 113 601 q 354 693 260 693 q 451 677 406 693 q 529 632 496 661 l 529 679 l 767 679 l 767 -287 l 529 -287 l 529 46 q 451 2 496 18 q 354 -14 406 -14 m 406 201 q 502 240 465 201 q 539 340 539 278 q 502 439 539 400 q 407 478 465 478 q 311 439 349 478 q 274 340 274 400 q 311 240 274 279 q 406 201 349 201 z "},"r":{"ha":629,"x_min":71,"x_max":629,"o":"m 71 0 l 71 679 l 313 679 l 313 636 q 485 693 381 693 q 629 642 579 693 l 489 454 q 457 474 476 467 q 413 482 438 482 q 313 369 313 482 l 313 0 l 71 0 z "},"s":{"ha":654,"x_min":6,"x_max":638,"o":"m 329 -19 q 147 16 236 -19 q 6 108 58 51 l 138 243 q 217 189 171 208 q 317 169 264 169 q 379 201 379 169 q 356 235 379 224 q 297 256 333 247 q 219 278 260 265 q 142 313 178 290 q 82 376 106 336 q 58 479 58 415 q 94 593 58 543 q 193 672 129 643 q 343 700 257 700 q 510 670 431 700 q 638 581 589 640 l 504 446 q 431 498 471 483 q 357 513 390 513 q 297 479 297 513 q 320 449 297 460 q 379 430 343 439 q 456 407 415 421 q 533 369 497 393 q 592 303 569 344 q 615 200 615 263 q 538 40 615 99 q 329 -19 460 -19 z "},"t":{"ha":569,"x_min":14,"x_max":556,"o":"m 164 0 l 164 478 l 14 478 l 14 679 l 164 679 l 164 960 l 406 960 l 406 679 l 556 679 l 556 478 l 406 478 l 406 0 l 164 0 z "},"u":{"ha":764,"x_min":53,"x_max":711,"o":"m 382 -15 q 212 23 286 -15 q 95 129 138 61 q 53 286 53 197 l 53 679 l 294 679 l 294 286 q 319 219 294 243 q 382 194 343 194 q 445 219 421 194 q 469 286 469 243 l 469 679 l 711 679 l 711 286 q 669 129 711 197 q 553 23 628 61 q 382 -15 479 -15 z "},"v":{"ha":764,"x_min":-1,"x_max":765,"o":"m 275 0 l -1 679 l 257 679 l 383 268 l 510 679 l 765 679 l 489 1 l 275 0 z "},"w":{"ha":1111,"x_min":4,"x_max":1107,"o":"m 219 0 l 4 679 l 238 679 l 333 307 l 447 679 l 663 679 l 776 307 l 874 679 l 1107 679 l 892 0 l 674 0 l 556 383 l 435 0 l 219 0 z "},"x":{"ha":764,"x_min":1,"x_max":763,"o":"m 1 0 l 242 346 l 15 679 l 294 679 l 392 513 l 490 679 l 749 679 l 526 351 l 763 0 l 485 0 l 376 186 l 260 0 l 1 0 z "},"y":{"ha":751,"x_min":1,"x_max":751,"o":"m 113 -287 l 260 35 l 1 679 l 260 679 l 376 289 l 493 679 l 751 679 l 472 0 l 356 -287 l 113 -287 z "},"z":{"ha":688,"x_min":31,"x_max":651,"o":"m 31 0 l 31 144 l 310 482 l 54 482 l 54 679 l 651 679 l 651 535 l 372 197 l 643 197 l 643 0 l 31 0 z "},"ﬁ":{"ha":925,"x_min":10,"x_max":857,"o":"m 154 0 l 154 478 l 10 478 l 10 679 l 154 679 l 154 729 q 190 879 154 811 q 295 988 226 947 q 460 1029 364 1029 q 542 1018 504 1029 q 619 983 581 1007 l 510 800 q 460 814 485 814 q 412 795 428 814 q 396 746 396 776 l 396 679 l 857 679 l 857 0 l 615 0 l 615 478 l 396 478 l 396 0 l 154 0 m 736 724 q 650 759 683 724 q 617 844 617 794 q 650 931 617 896 q 736 967 683 967 q 822 931 788 967 q 856 844 856 896 q 822 759 856 794 q 736 724 788 724 z "},"ﬂ":{"ha":907,"x_min":10,"x_max":836,"o":"m 154 0 l 154 478 l 10 478 l 10 679 l 154 679 l 154 718 q 192 873 154 803 q 302 986 229 943 q 478 1029 375 1029 l 478 814 q 418 790 440 814 q 396 728 396 765 l 396 679 l 594 679 l 594 1013 l 836 1013 l 836 0 l 594 0 l 594 478 l 396 478 l 396 0 l 154 0 z "},".":{"ha":422,"x_min":74,"x_max":350,"o":"m 213 -15 q 113 25 151 -15 q 74 125 74 65 q 113 224 74 183 q 213 265 151 265 q 310 224 271 265 q 350 125 350 183 q 310 25 350 65 q 213 -15 271 -15 z "},",":{"ha":399,"x_min":65,"x_max":344,"o":"m 69 -169 l 158 -3 q 93 40 121 6 q 65 122 65 74 q 105 223 65 181 q 206 265 144 265 q 303 224 261 265 q 344 122 344 183 q 335 66 344 99 q 299 -17 326 33 l 182 -231 l 69 -169 z "},":":{"ha":417,"x_min":69,"x_max":346,"o":"m 208 386 q 109 426 149 386 q 69 526 69 467 q 109 627 69 586 q 208 668 149 668 q 307 627 268 668 q 346 526 346 586 q 307 426 346 467 q 208 386 268 386 m 208 -15 q 109 25 149 -15 q 69 125 69 65 q 109 224 69 183 q 208 265 149 265 q 307 224 268 265 q 346 125 346 183 q 307 25 346 65 q 208 -15 268 -15 z "},";":{"ha":397,"x_min":63,"x_max":342,"o":"m 201 386 q 101 426 140 386 q 63 526 63 467 q 101 627 63 586 q 201 668 140 668 q 300 627 261 668 q 339 526 339 586 q 300 426 339 467 q 201 386 261 386 m 67 -169 l 156 -3 q 90 40 118 6 q 63 122 63 74 q 102 223 63 181 q 201 265 142 265 q 300 224 258 265 q 342 122 342 183 q 332 66 342 99 q 296 -17 322 33 l 179 -231 l 67 -169 z "},"!":{"ha":413,"x_min":67,"x_max":343,"o":"m 115 375 l 74 1013 l 338 1013 l 296 375 l 115 375 m 206 -15 q 106 25 146 -15 q 67 125 67 65 q 106 224 67 183 q 206 265 146 265 q 304 224 265 265 q 343 125 343 183 q 304 25 343 65 q 206 -15 265 -15 z "},"¡":{"ha":411,"x_min":67,"x_max":344,"o":"m 206 411 q 106 452 146 411 q 67 553 67 493 q 106 653 67 613 q 206 693 146 693 q 305 653 265 693 q 344 553 344 613 q 305 452 344 493 q 206 411 265 411 m 74 -287 l 115 301 l 296 301 l 338 -287 l 74 -287 z "},"?":{"ha":689,"x_min":24,"x_max":650,"o":"m 267 371 l 251 635 l 321 635 q 392 658 365 635 q 418 719 418 681 q 392 781 418 758 q 326 803 367 803 q 239 774 279 803 q 172 701 199 744 l 24 846 q 145 976 65 924 q 338 1029 225 1029 q 499 990 429 1029 q 610 884 569 950 q 649 738 650 818 q 594 562 649 628 q 458 467 540 496 l 453 371 l 267 371 m 360 -15 q 260 25 299 -15 q 221 125 221 65 q 260 224 221 183 q 360 265 299 265 q 458 224 419 265 q 497 125 497 183 q 458 25 497 65 q 360 -15 419 -15 z "},"¿":{"ha":682,"x_min":39,"x_max":663,"o":"m 329 411 q 231 452 269 411 q 192 553 192 493 q 231 653 192 613 q 329 693 269 693 q 429 653 390 693 q 468 553 468 613 q 429 452 468 493 q 329 411 390 411 m 350 -304 q 188 -268 258 -304 q 78 -169 118 -232 q 39 -26 39 -107 q 92 136 39 69 q 229 235 146 203 l 236 307 l 422 307 l 438 89 l 368 89 q 297 67 324 89 q 271 4 271 44 q 296 -56 271 -35 q 361 -78 321 -78 q 449 -49 408 -78 q 514 24 489 -21 l 663 -121 q 542 -252 621 -200 q 350 -304 463 -304 z "},"*":{"ha":679,"x_min":36,"x_max":635,"o":"m 288 418 l 289 635 l 122 510 l 36 676 l 233 740 l 69 860 l 201 993 l 317 826 l 381 1026 l 547 940 l 422 769 l 635 771 l 604 585 l 406 654 l 474 450 l 288 418 z "},"#":{"ha":935,"x_min":43,"x_max":892,"o":"m 122 0 l 168 274 l 43 274 l 43 440 l 197 440 l 218 565 l 92 565 l 92 731 l 247 731 l 290 985 l 483 985 l 440 731 l 565 731 l 610 985 l 804 985 l 760 731 l 892 731 l 892 565 l 732 565 l 711 440 l 843 440 l 843 274 l 682 274 l 636 0 l 442 0 l 489 274 l 363 274 l 317 0 l 122 0 m 390 440 l 517 440 l 538 565 l 413 565 l 390 440 z "},"/":{"ha":522,"x_min":0,"x_max":522,"o":"m 0 -86 l 317 1060 l 522 1060 l 206 -86 l 0 -86 z "},"\\":{"ha":522,"x_min":0,"x_max":522,"o":"m 317 -86 l 0 1060 l 206 1060 l 522 -86 l 317 -86 z "},"(":{"ha":438,"x_min":38,"x_max":422,"o":"m 292 -183 q 103 84 169 -78 q 38 436 38 246 q 103 788 38 625 q 292 1054 169 950 l 422 926 q 244 436 244 747 q 422 -54 244 124 l 292 -183 z "},")":{"ha":438,"x_min":15,"x_max":400,"o":"m 146 -183 l 15 -54 q 193 436 193 124 q 15 926 193 747 l 146 1054 q 334 788 268 950 q 400 436 400 625 q 334 84 400 246 q 146 -183 268 -78 z "},"{":{"ha":485,"x_min":21,"x_max":442,"o":"m 354 -133 q 162 -70 229 -133 q 108 124 94 -7 l 124 285 q 113 341 128 325 q 60 357 97 357 l 21 357 l 21 526 l 60 526 q 113 542 97 526 q 124 599 128 558 l 107 756 q 162 948 94 883 q 354 1013 229 1013 l 442 1013 l 442 840 l 396 840 q 319 817 338 840 q 304 751 300 793 l 315 622 q 306 511 321 554 q 238 440 290 468 q 306 372 290 415 q 315 263 321 328 l 304 129 q 319 63 300 86 q 396 40 338 40 l 442 40 l 442 -133 l 354 -133 z "},"}":{"ha":485,"x_min":33,"x_max":454,"o":"m 121 -133 l 33 -133 l 33 40 l 79 40 q 156 63 138 40 q 171 129 174 86 l 160 263 q 169 372 153 328 q 238 440 185 415 q 169 511 185 468 q 160 622 153 554 l 171 751 q 156 817 175 793 q 79 840 138 840 l 33 840 l 33 1013 l 121 1013 q 313 948 246 1013 q 368 756 381 883 l 351 599 q 363 542 347 558 q 415 526 378 526 l 454 526 l 454 357 l 415 357 q 363 341 378 357 q 351 285 347 325 l 367 124 q 313 -70 379 -7 q 121 -133 246 -133 z "},"[":{"ha":489,"x_min":85,"x_max":446,"o":"m 85 -133 l 85 1013 l 446 1013 l 446 840 l 278 840 l 278 40 l 446 40 l 446 -133 l 85 -133 z "},"]":{"ha":489,"x_min":43,"x_max":404,"o":"m 43 -133 l 43 40 l 213 40 l 213 840 l 43 840 l 43 1013 l 404 1013 l 404 -133 l 43 -133 z "},"-":{"ha":643,"x_min":71,"x_max":572,"o":"m 71 251 l 71 458 l 572 458 l 572 251 l 71 251 z "},"–":{"ha":800,"x_min":71,"x_max":729,"o":"m 71 258 l 71 451 l 729 451 l 729 258 l 71 258 z "},"—":{"ha":1208,"x_min":71,"x_max":1136,"o":"m 71 258 l 71 450 l 1136 450 l 1136 258 l 71 258 z "},"_":{"ha":718,"x_min":0,"x_max":718,"o":"m 0 -237 l 0 -54 l 718 -54 l 718 -237 l 0 -237 z "},"“":{"ha":697,"x_min":39,"x_max":646,"o":"m 314 965 l 225 797 q 290 755 263 789 q 318 672 318 721 q 278 572 318 614 q 179 529 239 529 q 81 571 122 529 q 39 672 39 613 q 48 729 39 697 q 85 813 57 761 l 201 1026 l 314 965 m 643 965 l 553 797 q 618 755 590 789 q 646 672 646 721 q 606 572 646 614 q 507 529 567 529 q 408 571 450 529 q 367 672 367 613 q 376 729 367 697 q 414 813 386 761 l 529 1026 l 643 965 z "},"”":{"ha":697,"x_min":51,"x_max":658,"o":"m 383 564 l 472 731 q 407 773 435 739 q 379 856 379 807 q 419 956 379 914 q 518 999 458 999 q 617 957 575 999 q 658 856 658 915 q 649 799 658 832 q 613 715 639 767 l 496 501 l 383 564 m 54 564 l 143 731 q 79 773 107 739 q 51 856 51 807 q 91 956 51 914 q 190 999 131 999 q 289 957 247 999 q 331 856 331 915 q 321 799 331 832 q 283 715 311 767 l 168 501 l 54 564 z "},"‘":{"ha":369,"x_min":39,"x_max":318,"o":"m 314 965 l 225 797 q 290 755 263 789 q 318 672 318 721 q 278 572 318 614 q 179 529 239 529 q 81 571 122 529 q 39 672 39 613 q 48 729 39 697 q 85 813 57 761 l 201 1026 l 314 965 z "},"’":{"ha":369,"x_min":51,"x_max":331,"o":"m 54 564 l 143 731 q 79 773 107 739 q 51 856 51 807 q 91 956 51 914 q 190 999 131 999 q 289 957 247 999 q 331 856 331 915 q 321 799 331 832 q 283 715 311 767 l 168 501 l 54 564 z "},"ʼ":{"ha":381,"x_min":39,"x_max":343,"o":"m 39 592 l 151 758 q 90 803 115 769 q 64 883 64 836 q 103 984 64 942 q 203 1026 143 1026 q 302 985 261 1026 q 343 883 343 944 q 333 826 343 860 q 292 743 322 792 l 153 529 l 39 592 z "},"\"":{"ha":654,"x_min":67,"x_max":588,"o":"m 404 579 l 364 1013 l 588 1013 l 546 579 l 404 579 m 108 579 l 67 1013 l 292 1013 l 250 579 l 108 579 z "},"'":{"ha":353,"x_min":64,"x_max":289,"o":"m 106 579 l 64 1013 l 289 1013 l 247 579 l 106 579 z "}," ":{"ha":257,"x_min":0,"x_max":0,"o":""}," ":{"ha":257,"x_min":0,"x_max":0,"o":""},"¢":{"ha":710,"x_min":32,"x_max":685,"o":"m 685 249 q 482 142 596 160 l 482 14 l 308 14 l 308 149 q 165 217 228 169 q 67 336 101 265 q 32 492 32 407 q 67 647 32 576 q 164 766 101 717 q 308 835 226 815 l 308 971 l 482 971 l 482 843 q 679 743 596 825 l 526 590 q 415 632 485 632 q 317 594 357 632 q 276 493 276 556 q 317 392 276 431 q 415 353 357 353 q 483 365 456 353 q 532 401 511 378 l 685 249 z "},"$":{"ha":851,"x_min":40,"x_max":790,"o":"m 790 293 q 720 94 790 171 q 522 -6 650 18 l 522 -140 l 349 -140 l 349 -14 q 178 33 253 -6 q 40 140 104 71 l 193 297 q 299 215 243 244 q 425 186 356 186 q 519 208 486 186 q 553 268 553 229 q 520 333 553 308 q 436 377 488 358 q 328 417 385 396 q 219 473 271 439 q 136 562 168 507 q 104 701 104 617 q 170 892 104 817 q 349 990 236 967 l 349 1126 l 522 1126 l 522 996 q 786 865 688 974 l 632 708 q 544 776 589 754 q 449 799 500 799 q 369 781 397 799 q 340 728 340 764 q 372 666 340 689 q 456 625 404 643 q 565 585 507 607 q 674 529 622 564 q 758 438 725 494 q 790 293 790 381 z "},"€":{"ha":986,"x_min":-21,"x_max":946,"o":"m -21 314 l -21 449 l 74 449 q 72 493 72 471 q 72 525 71 510 l -21 525 l -21 661 l 97 661 q 199 838 129 761 q 363 958 268 915 q 572 1001 458 1001 q 778 964 686 1001 q 940 863 869 926 l 774 696 q 688 758 738 736 q 571 781 638 781 q 449 749 503 781 q 364 661 394 717 l 647 661 l 617 525 l 325 525 q 324 493 324 510 q 326 449 324 471 l 600 449 l 571 314 l 371 314 q 455 233 403 261 q 574 204 507 204 q 690 226 639 204 q 779 289 740 247 l 946 122 q 784 21 874 57 q 575 -15 694 -15 q 369 26 464 -15 q 206 141 275 67 q 101 314 136 215 l -21 314 z "},"£":{"ha":879,"x_min":72,"x_max":829,"o":"m 72 0 l 72 214 l 206 214 l 206 399 l 72 399 l 72 576 l 206 576 l 206 690 q 250 862 206 788 q 372 978 294 936 q 547 1019 449 1019 q 713 983 639 1019 q 829 886 786 946 l 675 732 q 625 784 650 768 q 563 800 600 800 q 483 769 513 800 q 454 686 454 739 l 454 576 l 690 576 l 690 399 l 454 399 l 454 214 l 800 214 l 800 0 l 72 0 z "},"¥":{"ha":953,"x_min":63,"x_max":892,"o":"m 88 314 l 88 449 l 333 449 l 294 525 l 88 525 l 88 661 l 226 661 l 63 985 l 328 985 l 479 625 l 632 985 l 892 985 l 725 661 l 865 661 l 865 525 l 657 525 l 618 449 l 865 449 l 865 314 l 603 314 l 603 0 l 354 0 l 354 314 l 88 314 z "},"+":{"ha":793,"x_min":65,"x_max":728,"o":"m 65 367 l 65 563 l 297 563 l 297 814 l 497 814 l 497 563 l 728 563 l 728 367 l 497 367 l 497 118 l 297 118 l 297 367 l 65 367 z "},"−":{"ha":793,"x_min":65,"x_max":728,"o":"m 65 367 l 65 563 l 728 563 l 728 367 l 65 367 z "},"=":{"ha":793,"x_min":65,"x_max":728,"o":"m 65 532 l 65 726 l 728 726 l 728 532 l 65 532 m 65 192 l 65 386 l 728 386 l 728 192 l 65 192 z "},">":{"ha":799,"x_min":71,"x_max":738,"o":"m 71 608 l 71 819 l 738 547 l 738 383 l 71 111 l 71 322 l 440 465 l 71 608 z "},"<":{"ha":799,"x_min":61,"x_max":728,"o":"m 728 111 l 61 383 l 61 547 l 728 819 l 728 608 l 357 465 l 728 322 l 728 111 z "},"~":{"ha":842,"x_min":56,"x_max":786,"o":"m 539 361 q 460 373 492 361 q 405 400 429 385 q 356 426 381 415 q 300 438 332 438 q 233 422 261 438 q 178 374 206 406 l 56 494 q 167 599 110 565 q 297 633 225 633 q 372 622 340 633 q 428 594 403 610 q 478 567 453 579 q 538 556 504 556 q 604 570 574 556 q 664 621 635 585 l 786 499 q 671 394 729 426 q 539 361 613 361 z "},"^":{"ha":658,"x_min":39,"x_max":619,"o":"m 436 625 l 329 833 l 221 625 l 39 625 l 257 1013 l 401 1013 l 619 625 l 436 625 z "},"%":{"ha":969,"x_min":42,"x_max":928,"o":"m 250 582 q 144 610 192 582 q 69 685 97 638 q 42 792 42 732 q 69 897 42 850 q 144 971 96 943 q 250 999 192 999 q 356 971 308 999 q 433 897 404 943 q 461 792 461 850 q 433 685 461 732 q 358 610 406 638 q 250 582 310 582 m 93 0 l 663 985 l 876 985 l 307 0 l 93 0 m 251 739 q 287 753 272 739 q 301 790 301 768 q 287 827 301 813 q 251 842 272 842 q 215 827 229 842 q 201 790 201 813 q 215 753 201 768 q 251 739 229 739 m 717 -14 q 612 14 660 -14 q 536 89 564 42 q 508 196 508 136 q 536 301 508 254 q 611 375 564 347 q 717 403 658 403 q 824 375 776 403 q 900 301 872 347 q 928 196 928 254 q 900 89 928 136 q 824 14 872 42 q 717 -14 776 -14 m 718 144 q 755 159 740 144 q 769 194 769 174 q 755 231 769 217 q 718 246 740 246 q 682 231 696 246 q 668 194 668 217 q 682 159 668 174 q 718 144 696 144 z "},"✓":{"ha":1190,"x_min":25,"x_max":1165,"o":"m 383 83 l 25 433 l 178 585 l 458 308 l 1013 940 l 1165 786 l 528 83 l 383 83 z "},"@":{"ha":1064,"x_min":50,"x_max":1013,"o":"m 508 100 q 410 128 457 100 q 335 203 364 156 q 307 311 307 251 q 335 422 307 372 q 410 499 364 471 q 508 528 457 528 q 610 503 574 528 l 610 517 l 751 517 l 751 235 l 838 235 q 846 326 846 278 q 766 553 846 476 q 551 629 686 629 q 383 592 457 629 q 268 483 310 554 q 226 310 226 411 q 267 139 226 210 q 377 31 307 68 q 536 -6 447 -6 q 651 12 600 -6 q 743 63 701 29 l 856 -51 q 710 -137 792 -108 q 539 -165 628 -165 q 347 -130 435 -165 q 192 -30 258 -94 q 88 122 125 35 q 50 311 50 210 q 88 500 50 413 q 194 652 126 588 q 351 753 261 717 q 547 789 442 789 q 790 731 685 789 q 953 567 894 672 q 1013 325 1013 463 q 957 104 1013 188 l 610 104 l 610 124 q 508 100 575 100 m 521 240 q 570 262 553 240 q 588 313 588 283 q 569 363 588 343 q 521 383 551 383 q 472 363 489 383 q 454 313 454 342 q 472 261 454 282 q 521 240 489 240 z "},"&":{"ha":974,"x_min":47,"x_max":975,"o":"m 378 -15 q 202 25 276 -15 q 88 134 128 65 q 47 288 47 203 q 85 437 47 369 q 201 550 124 504 q 163 631 175 590 q 151 717 151 671 q 190 856 151 792 q 297 961 228 921 q 456 1001 365 1001 q 581 981 526 1001 q 674 931 636 961 q 733 868 713 900 l 576 714 q 521 765 549 750 q 461 781 493 781 q 401 760 424 781 q 378 710 378 739 q 388 666 378 686 q 419 622 399 646 l 975 0 l 693 0 l 629 71 q 522 11 588 38 q 378 -15 456 -15 m 271 306 q 300 233 271 263 q 382 203 329 203 q 475 242 438 203 l 328 403 q 285 362 299 388 q 271 306 271 336 z "},"|":{"ha":428,"x_min":106,"x_max":322,"o":"m 106 -181 l 106 1082 l 322 1082 l 322 -181 l 106 -181 z "},"̀":{"ha":0,"x_min":-206,"x_max":153,"o":"m 83 714 l -206 842 l -90 1029 l 153 832 l 83 714 z "},"`":{"ha":469,"x_min":56,"x_max":414,"o":"m 344 714 l 56 842 l 172 1029 l 414 832 l 344 714 z "}}}
